<svg viewBox="0 0 40 28" fill="none" height="28" width="40" xmlns="http://www.w3.org/2000/svg"><g clip-path="url(#a)" fill="#fff"><path d="M39.994 13.063C39.934 5.775 30.933-.092 19.887 0 8.843.094-.06 6.111 0 13.4c.002.19.003.71.004.775C.069 21.906 7.944 28.103 20.117 28 32.364 27.897 40.064 21.57 40 13.837l-.007-.776zm-19.89 12.604C9.483 25.757.83 20.26.772 13.388c-.003-.277.014-.55.04-.823l.123-.841c.018-.09.047-.178.068-.268.437.129.754.217.907.252 4.886 1.127 6.828 2.298 7.404 2.716a2.07 2.07 0 0 1 1.374-.533h.002c.586 0 1.135.253 1.527.695.614-.4 1.361-.484 2.118-.218.496.172.887.492 1.137.928.506-.163 1.078-.125 1.65.124 1.101.479 1.261 1.51 1.239 2.162 1.308.029 2.363 1.114 2.362 2.443 0 .317-.063.635-.182.925.363.185.982.442 1.53.375.521-.066.677-.235.713-.286l.01-.014-1.474-1.647c-.257-.245-.323-.496-.168-.668a.33.33 0 0 1 .253-.114c.171 0 .317.126.425.217.799.675 1.756 1.674 1.766 1.684l.024.027c.02.025.082.076.285.112q.103.02.221.02c.15 0 .527-.025.802-.253a2 2 0 0 0 .156-.151l.057-.075c.25-.323.013-.653-.037-.716l-1.795-2.042s-.07-.067-.13-.15c-.195-.264-.108-.437-.038-.517a.33.33 0 0 1 .246-.109c.16 0 .31.107.446.223.48.407 1.133 1.056 1.763 1.684l.397.397c.049.032.287.18.618.181q.4 0 .806-.271c.374-.247.548-.55.532-.922-.028-.327-.297-.588-.3-.59l-2.468-2.512c-.254-.22-.33-.486-.183-.67a.35.35 0 0 1 .259-.122c.16 0 .3.107.44.227.44.372 1.372 1.217 2.772 2.51l.138.126s.256.179.633.18q.377 0 .744-.235c.267-.172.422-.42.435-.696.025-.502-.323-.813-.325-.816-.659-.583-6.29-5.566-7.6-6.563-.758-.577-1.178-.728-1.612-.784q-.07-.008-.146-.008a2.4 2.4 0 0 0-.582.08c-.669.184-1.546.815-2.165 1.312-.806.646-1.56 1.253-2.297 1.42a3 3 0 0 1-.746.078c-.694-.001-1.445-.196-1.866-.484-.236-.16-.405-.352-.49-.555-.219-.515.108-.93.259-1.084l1.694-1.85.034-.035c-.243.059-.483.125-.739.198-.615.173-1.237.35-1.87.35h-.002c-.212 0-.42-.019-.623-.035l-.204-.015c-.888-.058-3.71-.783-6.2-1.795l.009-.007.687-.534C9.134 2.466 14.221.832 19.896.784c5.861-.05 11.122 1.605 14.67 4.252l.682.536c.046.038.086.08.13.117l-.222.105c-1.967.91-3.803 1.353-5.614 1.353h-.008c-1.74-.003-3.472-.426-5.145-1.254-.19-.09-1.928-.882-3.682-.885q-.068 0-.136.003c-2.795.062-4.013 1.292-5.304 2.593L13.6 9.42a.4.4 0 0 0-.054.086c.192.22.693.373 1.236.375q.35 0 .691-.078c.51-.114 1.207-.674 1.882-1.215l.048-.038c.749-.6 1.523-1.222 2.313-1.474.348-.112.684-.169.998-.169h.004c.34 0 .605.066.795.126.418.125.892.404 1.586.933 1.133.86 5.103 4.35 7.41 6.39a47 47 0 0 1 8.547-2.822l.003-.016.02.09.12.837q.025.308.028.62c.058 6.872-8.504 12.515-19.125 12.605z"></path><path d="M18.34 18.486c-.219 0-.456.082-.611.137-.108.037-.172.06-.223.06h-.034l-.046-.022a.14.14 0 0 1-.058-.093c-.046-.068-.032-.173.049-.373.004-.01.247-.701.037-1.298a1.15 1.15 0 0 0-.64-.65 1.7 1.7 0 0 0-.672-.153c-.465 0-.763.24-.898.384-.034.036-.08.075-.14.075-.02 0-.101-.011-.133-.111a.2.2 0 0 1-.033-.103 1.6 1.6 0 0 0-.085-.412 1.15 1.15 0 0 0-.762-.709 1.8 1.8 0 0 0-.53-.084c-.908 0-1.4.756-1.42.788l-.18.283-.006-.052-.01.006c-.038-.01-.043-.332-.043-.332a1 1 0 0 0-.046-.21 1.22 1.22 0 0 0-1.142-.825 1.232 1.232 0 0 0-1.138 1.677 1.22 1.22 0 0 0 1.119.747c.314 0 .562-.194.843-.345.077-.04.156-.046.18-.012.022.03.03.066.032.104.015.03.024.066.018.11a2.1 2.1 0 0 0 .05.915c.124.364.394.736.957.957q.212.084.423.085c.252 0 .5-.088.758-.272.063-.045.11-.066.155-.063.03.003.078.012.11.049a.16.16 0 0 1 .037.096q.029.07.014.148c-.014.094-.02.239.024.404.086.263.302.563.824.777q.27.111.507.111c.345 0 .581-.176.768-.35.065-.061.124-.102.19-.102.097 0 .136.072.154.144a.5.5 0 0 1 .037.178c.007.195.053.376.123.545.248.54.79.911 1.42.913a1.58 1.58 0 0 0 1.456-2.164 1.59 1.59 0 0 0-1.434-.958"></path></g><defs><clipPath id="a"><path d="M0 0h40v28H0z" fill="#fff"></path></clipPath></defs></svg>